<?xml version="1.0" standalone="no"?><!DOCTYPE svg PUBLIC "-//W3C//DTD SVG 1.1//EN" "http://www.w3.org/Graphics/SVG/1.1/DTD/svg11.dtd"><svg t="1522412761386" class="icon" style="" viewBox="0 0 1212 1024" version="1.1" xmlns="http://www.w3.org/2000/svg" p-id="11852" xmlns:xlink="http://www.w3.org/1999/xlink" width="236.71875" height="200"><defs><style type="text/css"></style></defs><path d="M165.267915 826.339574l155.186572 180.417474c19.83215 23.082419 52.555197 22.862062 72.552615 0L550.893049 826.339574l605.817086 0C1187.229611 826.339574 1211.964708 801.604476 1211.964708 770.864644L1211.964708 55.530019C1211.964708 24.845277 1187.780504 0 1156.765225 0L55.199484 0C24.735098 0 0 24.735098 0 55.530019l0 715.334624C0 801.494297 24.404562 826.339574 55.034216 826.339574L165.267915 826.339574zM55.089305 55.089305l1101.786099 0 0 716.160964L534.97224 771.250269l-178.434259 196.228104L193.693996 771.250269 55.089305 771.250269 55.089305 55.089305z" p-id="11853"></path></svg>